# xmcd CD database file
#
# Track frame offsets:
#	150
#	24798
#	43184
#	59247
#	82283
#	103128
#	128926
#	145957
#	153695
#	173941
#	191710
#	213920
#	233351
#	248271
#	272494
#
# Disc length: 4072 seconds
#
# Revision: 1
# Processed by: cddbd v1.5.1PL0 Copyright (c) Steve Scherf et al.
# Submitted via: CDex 1.51
#
DISCID=d50fe60f
DTITLE=ゆず - Going[2001〜2005]
DYEAR=2005
DGENRE=JPop
TTITLE0=栄光の架橋
TTITLE1=アゲイン2
TTITLE2=3カウント
TTITLE3=スミレ
TTITLE4=桜木町
TTITLE5=ユーモラス
TTITLE6=シュミのハバ
TTITLE7=3番線
TTITLE8=青
TTITLE9=歩行者優先
TTITLE10=夢の地図
TTITLE11=呼吸
TTITLE12=またあえる日まで
TTITLE13=1
TTITLE14=GOING HOME
EXTD=YEAR: 2005
EXTT0=
EXTT1=
EXTT2=
EXTT3=
EXTT4=
EXTT5=
EXTT6=
EXTT7=
EXTT8=
EXTT9=
EXTT10=
EXTT11=
EXTT12=
EXTT13=
EXTT14=
PLAYORDER=
